<svg width="1024" height="1024" viewBox="0 0 1024 1024" fill="none" xmlns="http://www.w3.org/2000/svg">
<path d="M469.5 154C492.972 154 512 173.028 512 196.5C512 213.073 502.512 227.428 488.673 234.437L549.688 590.765C557.567 591.957 565 594.512 571.738 598.182L779.158 327.811C775.869 321.776 774 314.857 774 307.501C774 284.029 793.028 265.001 816.5 265.001C839.972 265.001 859 284.029 859 307.501C859 330.973 839.972 350.001 816.5 350.001C813.254 350.001 810.094 349.635 807.057 348.946L597.213 622.477C598.005 623.779 598.754 625.11 599.458 626.469L792.782 583.355C796.582 563.78 813.814 549.001 834.5 549.001C857.972 549.001 877 568.029 877 591.501C877 614.973 857.972 634.001 834.5 634.001C820.786 634.001 808.591 627.504 800.82 617.422L606.926 660.665C606.177 676.882 599.708 691.604 589.487 702.86L633.651 773.416C635.561 773.143 637.514 773 639.5 773C661.868 773 680 790.909 680 813C680 835.091 661.868 853 639.5 853C617.132 853 599 835.091 599 813C599 805.646 601.011 798.757 604.517 792.837L560.058 721.812C553.576 723.882 546.669 725.001 539.5 725.001C529.495 725.001 519.999 722.824 511.459 718.918L406.486 809.347C407.583 813.074 408.174 817.015 408.174 821.093C408.174 844.289 389.146 863.093 365.674 863.093C342.202 863.093 323.174 844.289 323.174 821.093C323.174 797.897 342.202 779.093 365.674 779.093C372.038 779.093 378.075 780.478 383.495 782.956L484.194 696.208C482.511 693.807 480.98 691.291 479.615 688.675L194.496 741.075C189.651 760.623 172.164 775.101 151.331 775.101C126.755 775.1 106.831 754.953 106.831 730.101C106.831 705.248 126.755 685.101 151.331 685.101C167.333 685.101 181.359 693.643 189.201 706.463L472.068 654.475C472.35 648.088 473.518 641.931 475.455 636.126L265.448 484.708C258.892 489.332 250.923 492.046 242.326 492.046C219.959 492.046 201.826 473.69 201.826 451.046C201.826 428.402 219.959 410.046 242.326 410.046C264.693 410.046 282.826 428.403 282.826 451.046C282.826 452.043 282.789 453.032 282.72 454.012L494.798 606.924C500.661 601.738 507.432 597.556 514.843 594.646L453.404 235.843C437.913 229.499 427 214.275 427 196.5C427 173.028 446.028 154 469.5 154Z" fill="#CD7C5F" style="fill:#CD7C5F;fill:color(display-p3 0.8039 0.4863 0.3725);fill-opacity:1;"/>
</svg>
