<svg width="36" height="25" viewBox="0 0 36 25" fill="none" xmlns="http://www.w3.org/2000/svg">
<g clip-path="url(#clip0_2102_8251)">
<path d="M32.9947 24.1328C31.323 24.1328 30.3321 23.2776 30.2568 22.0463H31.8541C31.8541 22.4567 32.0816 23.0033 33.0705 23.0371C33.7552 23.0371 34.1347 22.6267 34.1347 22.3177C34.0584 21.8396 33.449 21.8058 32.8426 21.701C32.1574 21.6016 31.6267 21.463 31.2448 21.293C30.7136 21.0188 30.408 20.4355 30.408 19.8213C30.408 18.7256 31.323 17.8705 32.9188 17.8705C34.4404 17.8705 35.4288 18.6576 35.5022 19.8551H33.9826C33.9826 19.5494 33.9068 19.0342 32.9942 19.0342C32.3848 19.0342 32.0058 19.1361 31.9299 19.5808C31.9299 20.1979 33.2216 20.1636 34.2105 20.4017C35.1231 20.6421 35.732 21.2225 35.732 22.0463C35.732 23.5524 34.5162 24.1323 32.9942 24.1323M3.87793 14.0283L9.12377 10.9824L11.9374 15.8091H4.86684" fill="#121212" fill-opacity="0.24" style="fill:#121212;fill:color(display-p3 0.0706 0.0706 0.0706);fill-opacity:0.24;"/>
<path d="M1.44376 20.9947C1.44376 21.9517 2.28057 22.7388 3.19029 22.7388C3.42007 22.7407 3.64795 22.697 3.86068 22.6101C4.07342 22.5232 4.26678 22.395 4.42954 22.2328C4.5923 22.0705 4.72121 21.8776 4.80878 21.6652C4.89636 21.4527 4.94086 21.225 4.9397 20.9952C4.9397 20.072 4.18161 19.2511 3.19029 19.2511C2.28057 19.2511 1.44376 20.0715 1.44376 20.9947ZM3.11448 24.143C1.44376 24.143 0 22.7388 0 20.9947C0 19.2506 1.44376 17.8812 3.11448 17.8812C3.80014 17.8812 4.40855 18.0536 4.9397 18.4273V17.9493H6.46169V24.0044H4.9397V23.6278C4.48533 23.9706 3.80014 24.143 3.11448 24.143ZM23.4189 15.8078L16.1195 3.07947L21.3658 -0.000244141L30.4895 15.8078M8.43902 20.9947C8.43806 21.2244 8.48269 21.4521 8.57034 21.6644C8.65799 21.8768 8.7869 22.0697 8.94962 22.2318C9.11234 22.394 9.30562 22.5223 9.51827 22.6092C9.73092 22.6962 9.95871 22.7401 10.1884 22.7383C11.0982 22.7383 11.9379 21.9513 11.9379 20.9947C11.9379 20.0715 11.0982 19.2506 10.1884 19.2506C9.19953 19.2506 8.43902 20.0715 8.43902 20.9947ZM10.1121 24.143C8.36273 24.143 6.99526 22.7388 6.99526 20.9947C6.99526 19.2506 8.36273 17.8812 10.1121 17.8812C10.7949 17.8812 11.4043 18.0536 11.9374 18.4273V15.8623H13.4569V24.0044H11.9379V23.6278C11.4038 23.9712 10.7954 24.143 10.1126 24.143M10.0378 8.58847L15.3594 5.57877L21.2147 15.8073H15.6627V24.3844H14.1431V15.8068M34.746 17.3607C34.3645 17.3607 33.985 17.0178 33.985 16.6074C33.985 16.197 34.3645 15.8546 34.746 15.8546C35.2013 15.8546 35.507 16.1974 35.507 16.6079C35.507 17.0183 35.2013 17.3607 34.746 17.3607ZM34.746 15.9594C34.3645 15.9594 34.1371 16.265 34.1371 16.6079C34.1371 16.9502 34.364 17.2588 34.746 17.2588C35.1255 17.2588 35.3529 16.9502 35.3529 16.6074C35.3529 16.2646 35.1255 15.9594 34.746 15.9594Z" fill="#121212" fill-opacity="0.24" style="fill:#121212;fill:color(display-p3 0.0706 0.0706 0.0706);fill-opacity:0.24;"/>
<path d="M34.9038 17.0212L34.7522 16.6788H34.6005V17.0217H34.4856V16.2003H34.8285C34.9038 16.2003 35.0554 16.3051 35.0554 16.4408C35.0583 16.4913 35.0452 16.5415 35.018 16.5843C34.9908 16.627 34.9508 16.6601 34.9038 16.6788L35.0554 17.0217M34.7522 16.3051H34.6005V16.5769H34.7522C34.9038 16.5769 34.9038 16.5431 34.9038 16.4408C34.9038 16.3703 34.9038 16.3051 34.7522 16.3051ZM24.7052 20.9952C24.7042 21.2249 24.7489 21.4525 24.8365 21.6649C24.9242 21.8773 25.0531 22.0701 25.2158 22.2323C25.3785 22.3945 25.5718 22.5227 25.7844 22.6097C25.9971 22.6966 26.2249 22.7405 26.4546 22.7388C27.3672 22.7388 28.2016 21.9517 28.2016 20.9952C28.2016 20.0719 27.3672 19.251 26.4546 19.251C25.4662 19.251 24.7052 20.0719 24.7052 20.9952ZM26.3759 24.1434C24.6294 24.1434 23.2614 22.7393 23.2614 20.9952C23.2614 19.251 24.6294 17.8807 26.3759 17.8807C27.0616 17.8807 27.6705 18.0535 28.2011 18.4278V17.9488H29.6483V24.0044H28.2021V23.6277C27.6706 23.9715 27.0616 24.1434 26.3759 24.1434ZM17.7157 20.9952C17.7157 21.9517 18.5525 22.7388 19.4652 22.7388C19.6949 22.7405 19.9227 22.6966 20.1353 22.6097C20.348 22.5227 20.5413 22.3945 20.704 22.2323C20.8667 22.0701 20.9956 21.8773 21.0833 21.6649C21.1709 21.4525 21.2155 21.2249 21.2146 20.9952C21.2146 20.0719 20.4536 19.251 19.4652 19.251C18.5525 19.251 17.7157 20.0719 17.7157 20.9952ZM21.2146 15.8623H22.7341V24.0044H21.2146V23.6277C20.7568 23.9706 20.1474 24.1429 19.4652 24.1429C17.7157 24.1429 16.272 22.7393 16.272 20.9947C16.272 19.2515 17.7157 17.8812 19.4652 17.8812C20.1474 17.8812 20.7568 18.0535 21.2146 18.4278V15.8623Z" fill="#121212" fill-opacity="0.24" style="fill:#121212;fill:color(display-p3 0.0706 0.0706 0.0706);fill-opacity:0.24;"/>
</g>
<defs>
<clipPath id="clip0_2102_8251">
<rect width="35.732" height="24.1432" fill="white" style="fill:white;fill-opacity:1;"/>
</clipPath>
</defs>
</svg>
