<svg width="24" height="24" viewBox="0 0 24 24" fill="none" xmlns="http://www.w3.org/2000/svg">
<path d="M4.25 14C4.25 13.5858 4.58579 13.25 5 13.25C5.41421 13.25 5.75 13.5858 5.75 14V18.25H10C10.4142 18.25 10.75 18.5858 10.75 19C10.75 19.4142 10.4142 19.75 10 19.75H5C4.58579 19.75 4.25 19.4142 4.25 19V14ZM18.25 10V5.75H14C13.5858 5.75 13.25 5.41421 13.25 5C13.25 4.58579 13.5858 4.25 14 4.25H19C19.4142 4.25 19.75 4.58579 19.75 5V10C19.75 10.4142 19.4142 10.75 19 10.75C18.5858 10.75 18.25 10.4142 18.25 10Z" fill="#121212" style="fill:#121212;fill:color(display-p3 0.0706 0.0706 0.0706);fill-opacity:1;"/>
</svg>
