<svg width="24" height="24" viewBox="0 0 24 24" fill="none" xmlns="http://www.w3.org/2000/svg">
<path d="M12.0001 1.25C12.7251 1.25 13.3866 1.44916 14.1107 1.78711C14.8194 2.11792 15.6403 2.60804 16.672 3.22266L18.0571 4.04766C19.1934 4.72455 20.0972 5.26189 20.7798 5.77539C21.4768 6.29977 22.0002 6.83964 22.3411 7.55078C22.6822 8.2622 22.7747 9.0068 22.745 9.87578C22.716 10.7263 22.5657 11.7625 22.3782 13.0648L22.0997 15.002C21.8588 16.6762 21.6692 18.0021 21.3849 19.032C21.0948 20.0828 20.6831 20.917 19.9403 21.5566C19.1982 22.1956 18.3103 22.4813 17.2239 22.6176C16.158 22.7513 14.8101 22.75 13.1064 22.75H10.8939C9.19007 22.75 7.84223 22.7513 6.77628 22.6176C5.68992 22.4813 4.802 22.1956 4.05988 21.5566C3.31708 20.917 2.90546 20.0828 2.61535 19.032C2.331 18.0021 2.1414 16.6762 1.9005 15.002L1.62199 13.0648C1.4346 11.7625 1.28421 10.7263 1.25519 9.87578C1.22554 9.0068 1.31805 8.26221 1.6591 7.55078C2.00001 6.83966 2.52341 6.29977 3.22042 5.77539C3.90298 5.26189 4.80677 4.72455 5.94308 4.04766L7.32785 3.22266C8.35963 2.60802 9.18081 2.11792 9.88956 1.78711C10.6136 1.44916 11.2751 1.25 12.0001 1.25ZM12.0001 2.75C11.5709 2.75 11.133 2.8622 10.5239 3.14648C9.89947 3.43796 9.15329 3.88139 8.09581 4.51133L6.71066 5.33633C5.54646 6.02984 4.72483 6.52029 4.12199 6.97383C3.53353 7.41654 3.21137 7.78299 3.01183 8.19922C2.81247 8.61507 2.72946 9.09334 2.75441 9.82461C2.77999 10.5745 2.91431 11.5164 3.10636 12.8512L3.38527 14.7883C3.63176 16.5014 3.80796 17.7161 4.06105 18.6328C4.3084 19.5287 4.60614 20.0477 5.03839 20.4199C5.47125 20.7926 6.03252 21.0126 6.963 21.1293C7.91403 21.2486 9.15127 21.25 10.8939 21.25H13.1064C14.8489 21.25 16.0862 21.2486 17.0372 21.1293C17.9677 21.0126 18.5289 20.7926 18.9618 20.4199C19.394 20.0477 19.6918 19.5287 19.9392 18.6328C20.1923 17.7161 20.3684 16.5014 20.615 14.7883L20.8935 12.8512C21.0856 11.5164 21.2202 10.5744 21.2458 9.82461C21.2708 9.09335 21.1878 8.61507 20.9884 8.19922C20.7889 7.78301 20.4667 7.41654 19.8782 6.97383C19.2754 6.52029 18.4538 6.02984 17.2896 5.33633L15.9044 4.51133C14.847 3.88138 14.1008 3.43796 13.4763 3.14648C12.8672 2.8622 12.4293 2.75 12.0001 2.75Z" fill="#111827" style="fill:#111827;fill:color(display-p3 0.0667 0.0941 0.1529);fill-opacity:1;"/>
<path d="M8.39753 15.5536C8.64419 15.2208 9.1136 15.1511 9.44636 15.3977C10.1747 15.9376 11.054 16.2501 11.9999 16.2501C12.9457 16.2501 13.825 15.9372 14.5534 15.3973C14.8862 15.1508 15.356 15.2209 15.6026 15.5536C15.8491 15.8863 15.7791 16.3562 15.4464 16.6028C14.474 17.3235 13.2848 17.7501 11.9999 17.7501C10.7149 17.7501 9.52579 17.3231 8.55339 16.6024C8.22064 16.3557 8.15089 15.8863 8.39753 15.5536Z" fill="#111827" style="fill:#111827;fill:color(display-p3 0.0667 0.0941 0.1529);fill-opacity:1;"/>
</svg>
