<svg width="61" height="25" viewBox="0 0 61 25" fill="none" xmlns="http://www.w3.org/2000/svg">
<g clip-path="url(#clip0_2102_8256)">
<path fill-rule="evenodd" clip-rule="evenodd" d="M29.3804 7.24972C29.3693 7.26034 29.3949 7.31732 29.4359 7.37623C29.5006 7.46797 29.5113 8.17827 29.5113 12.511C29.5113 16.2223 29.4953 17.5734 29.4514 17.6695C29.4185 17.7414 29.4031 17.8114 29.4166 17.8249C29.4301 17.8385 32.1878 17.8505 35.5437 17.8515L41.6452 17.8525L41.6403 17.6854C41.6379 17.5936 41.6321 16.8409 41.6278 16.0132L41.6196 14.5081L41.5114 14.6057C41.4086 14.6984 41.2762 14.7037 38.7156 14.7167L36.027 14.7312V13.807H38.0937C39.8252 13.807 40.1777 13.8196 40.2675 13.8823C40.3265 13.9234 40.3892 13.9427 40.4071 13.9248C40.4366 13.8954 40.4563 11.0421 40.4264 11.0441C40.4197 11.0441 40.3009 11.0788 40.1618 11.1208C39.958 11.1822 39.5413 11.1967 37.9686 11.1967H36.027V10.3739L38.8238 10.3883L41.621 10.4033L41.6075 8.84221L41.594 7.28159L35.4968 7.25551C32.1434 7.24151 29.391 7.23861 29.3804 7.24972ZM19.7984 7.55006C19.8274 7.88179 19.9105 7.73789 19.0225 8.89339C18.7521 9.2454 18.2653 9.88471 17.9409 10.314C17.6164 10.7432 17.3267 11.0943 17.2967 11.0943C17.2595 11.0943 17.2475 10.5458 17.2581 9.33376C17.2731 7.68719 17.2808 7.56648 17.372 7.46556L17.4696 7.35788H13.9727C12.0494 7.35788 10.4763 7.37623 10.4763 7.39892C10.4763 7.42162 10.5052 7.46846 10.54 7.50371C10.5907 7.55392 10.6042 8.63264 10.6042 12.5506C10.6042 17.3783 10.6013 17.5362 10.5067 17.641L10.4087 17.7486H17.4696L17.372 17.641C17.2803 17.5396 17.2731 17.4179 17.2586 15.6704C17.2499 14.6313 17.2624 13.8075 17.2875 13.8075C17.3122 13.8075 17.3889 13.9021 17.457 14.018C17.6082 14.2725 17.6029 14.2643 18.2697 15.3039C18.5633 15.7617 18.8037 16.1639 18.8042 16.1982C18.8042 16.232 18.8187 16.2513 18.8366 16.2402C18.854 16.2295 19.0056 16.4435 19.1746 16.7158C19.4464 17.1562 19.4802 17.2412 19.4802 17.4797V17.7486H27.829L27.5798 17.5787C27.4122 17.4579 27.2697 17.3057 27.1602 17.1306C26.553 16.1582 25.9439 15.187 25.333 14.217L23.6758 11.5805L23.7845 11.4463C23.8444 11.3719 24.1935 10.8784 24.5604 10.3487C24.9274 9.81904 25.4827 9.02763 25.7942 8.58918C26.6117 7.43997 26.6884 7.3236 26.6532 7.28787C26.6353 7.27 25.08 7.25551 23.1964 7.25551H19.7728L19.7984 7.55006ZM47.3512 7.4728C47.3772 7.70747 47.3628 7.74804 45.5453 12.6047C45.094 13.8011 44.6481 14.9996 44.2077 16.2001C43.8045 17.3049 43.7195 17.498 43.5747 17.6332L43.4516 17.7486H46.4622C49.4231 17.7486 49.4724 17.7467 49.4202 17.6497C49.3328 17.4869 49.3555 17.3817 49.6173 16.7187C49.7549 16.3701 49.8814 16.0446 49.8983 15.9944C49.9268 15.9104 50.0402 15.9055 51.5584 15.9181L53.188 15.9316L53.4362 16.6221C53.6897 17.329 53.7308 17.5333 53.6593 17.7356L53.6188 17.851H57.3416C59.3895 17.851 61.065 17.8365 61.065 17.8201C61.065 17.8027 61.0114 17.7255 60.9462 17.6482C60.881 17.5709 60.5435 16.8418 60.1958 16.0287C59.8482 15.2155 59.5334 14.4806 59.4962 14.3961C59.3846 14.145 58.4995 12.0784 57.9607 10.8133C57.6854 10.1653 57.2764 9.20967 57.0519 8.68865C56.6903 7.84944 56.6463 7.71423 56.6666 7.49888L56.6888 7.25551H47.3275L47.3512 7.4728ZM-0.209537 7.49888C-0.155456 7.69202 -0.160768 17.5927 -0.215331 17.7351L-0.258789 17.8496L3.2357 17.8631C5.65099 17.8727 6.73067 17.8597 6.73067 17.8225C6.73067 17.7935 6.7017 17.7404 6.66645 17.7052C6.61624 17.655 6.59934 16.5656 6.58871 12.6795C6.57664 8.41052 6.58533 7.69202 6.65004 7.53751L6.72536 7.3574H-0.249132L-0.209537 7.49888ZM51.6776 12.0277C51.7138 12.1194 51.8635 12.4598 52.0103 12.7838C52.1566 13.1073 52.2933 13.4241 52.3131 13.4874L52.3498 13.6028H51.5796C51.1561 13.6028 50.7993 13.5854 50.7872 13.5641C50.7747 13.5429 50.8292 13.3874 50.9084 13.2189C51.0986 12.8174 51.2808 12.4122 51.455 12.0035C51.5434 11.7857 51.5835 11.7901 51.6776 12.0277Z" fill="#121212" fill-opacity="0.24" style="fill:#121212;fill:color(display-p3 0.0706 0.0706 0.0706);fill-opacity:0.24;"/>
</g>
<defs>
<clipPath id="clip0_2102_8256">
<rect width="61" height="25" fill="white" style="fill:white;fill-opacity:1;"/>
</clipPath>
</defs>
</svg>
