<svg width="32" height="32" viewBox="0 0 32 32" fill="none" xmlns="http://www.w3.org/2000/svg">
<rect x="4.07762" y="8.62601" width="5.89029" height="11.0441" rx="2.94514" transform="rotate(-19.0388 4.07762 8.62601)" fill="url(#paint0_radial_2267_7273)" fill-opacity="0.5" style=""/>
<rect x="4.07762" y="8.62601" width="5.89029" height="11.0441" rx="2.94514" transform="rotate(-19.0388 4.07762 8.62601)" fill="url(#paint1_radial_2267_7273)" fill-opacity="0.25" style=""/>
<rect x="4.07762" y="8.62601" width="5.89029" height="11.0441" rx="2.94514" transform="rotate(-19.0388 4.07762 8.62601)" stroke="black" style="stroke:black;stroke-opacity:1;" stroke-width="1.5" stroke-linecap="round" stroke-linejoin="round"/>
<path d="M21.6327 18.3711C22.2144 17.7429 22.8528 17.3737 23.6775 17.4289C25.393 17.5441 26.4519 19.4579 25.6023 20.9651C25.3008 21.4999 24.7184 22.1161 24.0698 22.6851C23.4048 23.2685 22.6058 23.8577 21.8095 24.3319C19.3467 25.7983 16.2598 26.4867 13.3954 26.2096C11.984 26.073 11.0403 25.8552 10.482 25.0269C9.60389 23.7238 10.14 21.9217 11.6501 21.4006C11.8603 21.3281 12.0648 21.2828 12.3258 21.2811C12.5563 21.2796 12.8152 21.3131 13.1284 21.3616C16.3454 21.8592 19.3922 20.7905 21.6327 18.3711Z" fill="url(#paint2_radial_2267_7273)" fill-opacity="0.5" style=""/>
<path d="M21.6327 18.3711C22.2144 17.7429 22.8528 17.3737 23.6775 17.4289C25.393 17.5441 26.4519 19.4579 25.6023 20.9651C25.3008 21.4999 24.7184 22.1161 24.0698 22.6851C23.4048 23.2685 22.6058 23.8577 21.8095 24.3319C19.3467 25.7983 16.2598 26.4867 13.3954 26.2096C11.984 26.073 11.0403 25.8552 10.482 25.0269C9.60389 23.7238 10.14 21.9217 11.6501 21.4006C11.8603 21.3281 12.0648 21.2828 12.3258 21.2811C12.5563 21.2796 12.8152 21.3131 13.1284 21.3616C16.3454 21.8592 19.3922 20.7905 21.6327 18.3711Z" fill="url(#paint3_radial_2267_7273)" fill-opacity="0.25" style=""/>
<path d="M21.6327 18.3711C22.2144 17.7429 22.8528 17.3737 23.6775 17.4289C25.393 17.5441 26.4519 19.4579 25.6023 20.9651C25.3008 21.4999 24.7184 22.1161 24.0698 22.6851C23.4048 23.2685 22.6058 23.8577 21.8095 24.3319C19.3467 25.7983 16.2598 26.4867 13.3954 26.2096C11.984 26.073 11.0403 25.8552 10.482 25.0269C9.60389 23.7238 10.14 21.9217 11.6501 21.4006C11.8603 21.3281 12.0648 21.2828 12.3258 21.2811C12.5563 21.2796 12.8152 21.3131 13.1284 21.3616C16.3454 21.8592 19.3922 20.7905 21.6327 18.3711Z" stroke="black" style="stroke:black;stroke-opacity:1;" stroke-width="1.5" stroke-linecap="round" stroke-linejoin="round"/>
<path d="M16.394 4.27485C17.94 3.74145 19.6156 4.58137 20.1483 6.12503L21.8421 11.0334C22.3748 12.577 21.5738 14.2716 20.0279 14.8051C18.4818 15.3387 16.8064 14.4987 16.2737 12.955L14.5799 8.0466C14.0472 6.50289 14.848 4.80837 16.394 4.27485Z" fill="url(#paint4_radial_2267_7273)" fill-opacity="0.5" style=""/>
<path d="M16.394 4.27485C17.94 3.74145 19.6156 4.58137 20.1483 6.12503L21.8421 11.0334C22.3748 12.577 21.5738 14.2716 20.0279 14.8051C18.4818 15.3387 16.8064 14.4987 16.2737 12.955L14.5799 8.0466C14.0472 6.50289 14.848 4.80837 16.394 4.27485Z" fill="url(#paint5_radial_2267_7273)" fill-opacity="0.25" style=""/>
<path d="M16.394 4.27485C17.94 3.74145 19.6156 4.58137 20.1483 6.12503L21.8421 11.0334C22.3748 12.577 21.5738 14.2716 20.0279 14.8051C18.4818 15.3387 16.8064 14.4987 16.2737 12.955L14.5799 8.0466C14.0472 6.50289 14.848 4.80837 16.394 4.27485Z" stroke="black" style="stroke:black;stroke-opacity:1;" stroke-width="1.5" stroke-linecap="round" stroke-linejoin="round"/>
<defs>
<radialGradient id="paint0_radial_2267_7273" cx="0" cy="0" r="1" gradientTransform="matrix(0.146343 7.15807 -3.29271 1.11845 7.08005 9.0907)" gradientUnits="userSpaceOnUse">
<stop stop-color="white" style="stop-color:white;stop-opacity:1;"/>
<stop offset="1" stop-color="white" stop-opacity="0" style="stop-color:none;stop-opacity:0;"/>
</radialGradient>
<radialGradient id="paint1_radial_2267_7273" cx="0" cy="0" r="1" gradientUnits="userSpaceOnUse" gradientTransform="translate(7.22639 13.8627) rotate(90) scale(3.57903 1.64636)">
<stop stop-color="white" style="stop-color:white;stop-opacity:1;"/>
<stop offset="1" stop-color="white" stop-opacity="0" style="stop-color:none;stop-opacity:0;"/>
</radialGradient>
<radialGradient id="paint2_radial_2267_7273" cx="0" cy="0" r="1" gradientTransform="matrix(1.5196 3.33748 -7.21059 3.09168 14.9613 21.0433)" gradientUnits="userSpaceOnUse">
<stop stop-color="white" style="stop-color:white;stop-opacity:1;"/>
<stop offset="1" stop-color="white" stop-opacity="0" style="stop-color:none;stop-opacity:0;"/>
</radialGradient>
<radialGradient id="paint3_radial_2267_7273" cx="0" cy="0" r="1" gradientUnits="userSpaceOnUse" gradientTransform="translate(16.084 23.2305) rotate(70.9612) scale(1.82531 3.91234)">
<stop stop-color="white" style="stop-color:white;stop-opacity:1;"/>
<stop offset="1" stop-color="white" stop-opacity="0" style="stop-color:none;stop-opacity:0;"/>
</radialGradient>
<radialGradient id="paint4_radial_2267_7273" cx="0" cy="0" r="1" gradientTransform="matrix(2.49671 6.78644 -2.7441 2.14195 16.5003 5.03196)" gradientUnits="userSpaceOnUse">
<stop stop-color="white" style="stop-color:white;stop-opacity:1;"/>
<stop offset="1" stop-color="white" stop-opacity="0" style="stop-color:none;stop-opacity:0;"/>
</radialGradient>
<radialGradient id="paint5_radial_2267_7273" cx="0" cy="0" r="1" gradientUnits="userSpaceOnUse" gradientTransform="translate(18.2109 9.54034) rotate(70.9612) scale(3.61482 1.64636)">
<stop stop-color="white" style="stop-color:white;stop-opacity:1;"/>
<stop offset="1" stop-color="white" stop-opacity="0" style="stop-color:none;stop-opacity:0;"/>
</radialGradient>
</defs>
</svg>
