<svg width="32" height="32" viewBox="0 0 32 32" fill="none" xmlns="http://www.w3.org/2000/svg">
<rect x="4.07762" y="8.62601" width="5.89029" height="11.0441" rx="2.94514" transform="rotate(-19.0388 4.07762 8.62601)" stroke="black" style="stroke:black;stroke-opacity:1;" stroke-width="1.5" stroke-linecap="round" stroke-linejoin="round"/>
<path d="M21.6327 18.3711C22.2144 17.7429 22.8528 17.3737 23.6775 17.4289C25.393 17.5441 26.4519 19.4579 25.6023 20.9651C25.3008 21.4999 24.7184 22.1161 24.0698 22.6851C23.4048 23.2685 22.6058 23.8577 21.8095 24.3319C19.3467 25.7983 16.2598 26.4867 13.3954 26.2096C11.984 26.073 11.0403 25.8552 10.482 25.0269C9.60389 23.7238 10.14 21.9217 11.6501 21.4006C11.8603 21.3281 12.0648 21.2828 12.3258 21.2811C12.5563 21.2796 12.8152 21.3131 13.1284 21.3616C16.3454 21.8592 19.3922 20.7905 21.6327 18.3711Z" stroke="black" style="stroke:black;stroke-opacity:1;" stroke-width="1.5" stroke-linecap="round" stroke-linejoin="round"/>
<path d="M16.394 4.27461C17.94 3.7412 19.6156 4.58113 20.1483 6.12479L21.8421 11.0331C22.3748 12.5768 21.5738 14.2713 20.0279 14.8049C18.4818 15.3384 16.8064 14.4984 16.2737 12.9547L14.5799 8.04636C14.0472 6.50264 14.848 4.80812 16.394 4.27461Z" stroke="black" style="stroke:black;stroke-opacity:1;" stroke-width="1.5" stroke-linecap="round" stroke-linejoin="round"/>
</svg>
