<svg width="63" height="25" viewBox="0 0 63 25" fill="none" xmlns="http://www.w3.org/2000/svg">
<g clip-path="url(#clip0_2102_8247)">
<path d="M6.43331 11.0418C6.43331 12.4846 5.7346 13.4624 3.96587 13.4624H3.40623V8.86554C3.60469 8.85443 3.79059 8.85443 3.9649 8.85443C5.64044 8.85443 6.43234 9.64536 6.43234 11.0413M4.61629 15.4629C7.78146 15.4629 9.78294 13.8337 9.78294 10.9955C9.7839 7.87663 7.64288 6.76025 4.15177 6.76025C2.80168 6.76025 1.17298 6.85296 0.00927734 6.99251V18.1172H3.40671V15.4639L4.61629 15.4629ZM50.1374 11.0413C50.1374 12.4841 49.4396 13.4619 47.6699 13.4619H47.1132V8.86554C47.3102 8.85443 47.4961 8.85443 47.6704 8.85443C49.3455 8.85443 50.1374 9.64536 50.1374 11.0413ZM48.3237 15.4629C51.4865 15.4629 53.4885 13.8337 53.4885 10.9955C53.4885 7.87615 51.3479 6.75977 47.8568 6.75977C46.5072 6.75977 44.877 6.85248 43.7138 6.99202V18.1172H47.1132V15.4639L48.3237 15.4629ZM57.9096 9.83127C57.9096 9.22624 58.5156 8.94666 59.4919 8.94666C60.5629 8.94666 61.7276 9.1794 62.518 9.50678L62.2389 7.0857C61.3553 6.8998 60.5639 6.76025 59.1215 6.76025C56.375 6.76025 54.5141 7.84283 54.5141 10.1113C54.5141 14.0201 59.8207 13.2297 59.8207 15.0448C59.8207 15.7425 59.3079 16.1143 58.0506 16.1143C56.9351 16.1143 55.2118 15.7425 54.1881 15.2307L54.5614 17.7913C55.5846 18.1631 56.981 18.349 58.0984 18.349C60.9366 18.349 63.2645 17.418 63.2645 14.6251C63.2645 10.9027 57.9105 11.6005 57.9105 9.83175M41.1551 6.99202H37.7582V18.1172H41.1556L41.1551 6.99202ZM27.3776 6.99202H23.9801V18.1172H27.3776V6.99202ZM33.2888 15.8816V6.99202H29.8913V18.1172H36.0358L36.5476 15.8825L33.2888 15.8816ZM21.4668 6.99202H18.0684V11.4136H14.5309V6.99251H11.1325V18.1172H14.5309V13.742H18.0684V18.1172H21.4658L21.4668 6.99202Z" fill="#121212" fill-opacity="0.24" style="fill:#121212;fill:color(display-p3 0.0706 0.0706 0.0706);fill-opacity:0.24;"/>
</g>
<defs>
<clipPath id="clip0_2102_8247">
<rect width="63" height="25" fill="white" style="fill:white;fill-opacity:1;"/>
</clipPath>
</defs>
</svg>
