<svg width="42" height="26" viewBox="0 0 42 26" fill="none" xmlns="http://www.w3.org/2000/svg">
<g clip-path="url(#clip0_2102_8249)">
<path fill-rule="evenodd" clip-rule="evenodd" d="M0 5.89046C6.7094 1.95319 13.2063 0.0695325 21.0032 0C28.8067 0.0695325 35.294 1.95415 42.0092 5.89288V20.8327C35.2414 23.6043 29.0119 24.9699 21.6864 25.1075C13.8853 25.1577 7.20579 23.7859 0 20.8332V5.89046ZM35.8228 7.07831V6.7659H36.0188C36.1279 6.7659 36.223 6.7997 36.2197 6.92717C36.2168 7.04837 36.126 7.07783 36.0198 7.07783L35.8228 7.07831ZM36.028 6.67126H35.7054V7.51096H35.8228V7.17633H35.9937C36.0121 7.17496 36.0304 7.17997 36.0455 7.19053C36.0606 7.20108 36.0717 7.21654 36.0767 7.23428L36.225 7.50806H36.3486L36.1931 7.21834L36.1361 7.16281C36.1942 7.15278 36.2466 7.12187 36.2834 7.0759C36.3162 7.02867 36.3331 6.97221 36.3316 6.91473C36.3301 6.85724 36.3104 6.80173 36.2752 6.75624C36.2417 6.72637 36.2026 6.70347 36.1601 6.68888C36.1177 6.67429 36.0728 6.6683 36.028 6.67126ZM36.6229 6.84171C36.5728 6.71109 36.4854 6.59804 36.3717 6.51659C36.258 6.43513 36.1228 6.38885 35.9831 6.38347C35.7907 6.38037 35.6049 6.45363 35.4664 6.58721C35.328 6.7208 35.2481 6.90381 35.2443 7.09618C35.2439 7.20099 35.2667 7.30458 35.311 7.39959C35.3553 7.4946 35.4199 7.57868 35.5004 7.64586C35.5808 7.71304 35.6751 7.76165 35.7765 7.78825C35.8779 7.81485 35.9839 7.81878 36.0869 7.79975C36.19 7.78073 36.2876 7.73922 36.3728 7.67818C36.458 7.61714 36.5287 7.53807 36.5799 7.44659C36.6311 7.35512 36.6614 7.25349 36.6689 7.14894C36.6763 7.0444 36.6606 6.9395 36.6229 6.84171ZM36.7378 6.79632C36.679 6.64198 36.5761 6.50838 36.4419 6.41219C36.3077 6.31601 36.1481 6.26151 35.9831 6.25551V6.25648C35.7563 6.25323 35.5375 6.33972 35.3743 6.49709C35.211 6.65446 35.1166 6.86997 35.1115 7.09666C35.1113 7.22019 35.1383 7.34224 35.1905 7.45416C35.2428 7.56607 35.3191 7.6651 35.414 7.7442C35.5089 7.8233 35.62 7.88053 35.7395 7.91183C35.859 7.94313 35.9839 7.94773 36.1054 7.92529C36.2269 7.90286 36.3419 7.85395 36.4423 7.78203C36.5428 7.71012 36.6261 7.61697 36.6865 7.50919C36.7469 7.40142 36.7828 7.28168 36.7916 7.15847C36.8005 7.03527 36.7821 6.91162 36.7378 6.79632ZM35.2974 19.5691L34.8266 19.7033C34.873 19.908 35.0149 20.0775 35.2081 20.1586C35.4287 20.2325 35.6668 20.2311 35.8865 20.1548C36.1151 20.1078 36.3196 19.9811 36.4635 19.7974C36.5673 19.6376 36.5934 19.4387 36.5326 19.2576C36.5156 19.1853 36.4832 19.1175 36.4376 19.0588C36.392 19.0002 36.3343 18.952 36.2684 18.9177C36.0509 18.8426 35.8181 18.8228 35.591 18.8602C35.4761 18.8801 35.3583 18.8766 35.2448 18.8501C35.2177 18.8405 35.1933 18.8245 35.1737 18.8035C35.1542 18.7825 35.1399 18.757 35.1323 18.7293C35.1231 18.7014 35.1218 18.6714 35.1286 18.6428C35.1355 18.6141 35.1501 18.5879 35.1709 18.5671C35.2299 18.5103 35.3034 18.4707 35.3833 18.4527C35.4667 18.4256 35.5558 18.4218 35.6412 18.4416C35.6733 18.4503 35.703 18.4665 35.7277 18.4888C35.7525 18.5111 35.7716 18.5389 35.7836 18.57L36.223 18.4435C36.2004 18.3594 36.1586 18.2818 36.101 18.2165C36.0434 18.1513 35.9714 18.1002 35.8908 18.0673C35.7012 17.9966 35.4929 17.9942 35.3017 18.0606C35.0893 18.1089 34.8961 18.2199 34.7464 18.3793C34.631 18.5179 34.5977 18.7076 34.6595 18.8781C34.6909 19.0205 34.7759 19.1451 34.8966 19.2267C35.0825 19.3049 35.2863 19.3305 35.4857 19.3006C35.6388 19.2813 35.7947 19.288 35.9454 19.3218C35.9768 19.3336 36.005 19.3526 36.0277 19.3774C36.0504 19.4021 36.0668 19.4319 36.0758 19.4643C36.0866 19.4956 36.0883 19.5294 36.0806 19.5616C36.0729 19.5939 36.0562 19.6233 36.0323 19.6463C35.9601 19.7068 35.8742 19.7487 35.7822 19.7685C35.6772 19.8078 35.5614 19.8073 35.4567 19.767C35.4171 19.748 35.3822 19.7204 35.3546 19.6861C35.327 19.6518 35.3075 19.6119 35.2974 19.5691ZM34.4089 19.7279L33.9415 19.8438C33.9559 19.9477 33.935 20.0535 33.8821 20.1441C33.8521 20.1901 33.8131 20.2295 33.7675 20.26C33.7218 20.2904 33.6705 20.3113 33.6165 20.3214C33.5468 20.3424 33.4729 20.3455 33.4016 20.3305C33.3303 20.3155 33.2639 20.2828 33.2085 20.2354C33.0826 20.1193 32.9977 19.9654 32.9666 19.797C32.9069 19.6182 32.9069 19.4248 32.9666 19.246C32.9927 19.1822 33.034 19.1256 33.0868 19.0813C33.1396 19.037 33.2024 19.0062 33.2698 18.9915C33.3706 18.9606 33.479 18.9657 33.5765 19.006C33.6682 19.0543 33.7387 19.1369 33.7725 19.2359L34.2332 19.121C34.2055 19.0217 34.158 18.929 34.0935 18.8486C34.029 18.7682 33.9489 18.7017 33.858 18.6531C33.6237 18.5582 33.364 18.5459 33.1218 18.6182C32.8796 18.6905 32.6692 18.8431 32.5253 19.0509C32.4567 19.1878 32.4159 19.337 32.4053 19.4897C32.3947 19.6425 32.4145 19.7958 32.4635 19.9409C32.5127 20.2204 32.6687 20.4696 32.898 20.6362C33.14 20.7728 33.4292 20.8013 33.6933 20.7139C33.9193 20.669 34.1226 20.5469 34.2694 20.3692C34.4022 20.1837 34.4533 19.952 34.4089 19.7279ZM31.6947 18.9795L31.2206 19.0809L31.6479 21.0906L32.1216 20.9901L31.6947 18.9795ZM29.137 19.8853L29.7473 19.767L30.0631 21.3923L30.5378 21.3001L30.2225 19.6743L30.8299 19.5555L30.7541 19.1644L29.0607 19.4937L29.137 19.8853ZM27.7029 20.5985L27.6363 20.0534L28.0119 20.007C28.1063 19.9875 28.2045 19.9999 28.291 20.0423C28.349 20.0876 28.3847 20.1562 28.3876 20.2301C28.3961 20.2698 28.3952 20.311 28.385 20.3503C28.3748 20.3896 28.3555 20.426 28.3287 20.4566C28.2587 20.5157 28.1707 20.5494 28.0791 20.5522L27.7029 20.5985ZM28.0564 19.5995L27.107 19.7158L27.3581 21.7564L27.8381 21.697L27.7522 20.9949L28.2089 20.9389C28.418 20.9293 28.617 20.8453 28.7695 20.7014C28.8941 20.5522 28.9443 20.3547 28.9062 20.1639C28.9012 20.0727 28.8758 19.9837 28.8319 19.9035C28.7881 19.8233 28.7268 19.7539 28.6527 19.7004C28.4724 19.5964 28.2608 19.5606 28.0564 19.5995ZM26.0921 21.36C26.0539 21.4248 25.9997 21.4788 25.9347 21.5166C25.8696 21.5545 25.796 21.5751 25.7207 21.5763C25.6477 21.5877 25.573 21.5808 25.5033 21.5564C25.4335 21.532 25.3709 21.4907 25.3209 21.4363C25.223 21.2863 25.1638 21.1145 25.1483 20.936C25.1329 20.7576 25.1619 20.5781 25.2326 20.4136C25.2723 20.3517 25.3267 20.3006 25.3908 20.2646C25.455 20.2287 25.527 20.209 25.6005 20.2074C25.6747 20.1954 25.7507 20.2027 25.8213 20.2285C25.8919 20.2542 25.9547 20.2977 26.0037 20.3547C26.2012 20.6531 26.234 21.0312 26.0921 21.36ZM24.9631 21.7444C25.0708 21.8377 25.1974 21.9067 25.3343 21.9463C25.4712 21.986 25.6151 21.9955 25.756 21.9742C26.0457 21.9679 26.3185 21.8342 26.5006 21.6087C26.6523 21.368 26.7209 21.0842 26.6961 20.8008C26.6712 20.5174 26.5542 20.25 26.363 20.0394C26.2551 19.9452 26.1279 19.8759 25.9903 19.8361C25.8528 19.7964 25.7082 19.7874 25.5667 19.8095C25.4241 19.8137 25.2841 19.8486 25.1562 19.912C25.0284 19.9753 24.9157 20.0656 24.826 20.1765C24.6725 20.4163 24.6028 20.7002 24.6276 20.9838C24.6524 21.2674 24.7704 21.5348 24.9631 21.7444ZM21.7516 21.711L21.7077 20.4556L22.0437 20.4435C22.1963 20.4276 22.3479 20.4831 22.4542 20.5937C22.5556 20.727 22.6082 20.8911 22.6024 21.0582C22.6217 21.2267 22.5783 21.3962 22.4788 21.5333C22.3692 21.6463 22.2166 21.7072 22.0587 21.7009L21.7516 21.711ZM22.0925 20.0418L21.2103 20.0727L21.2818 22.1273L22.1205 22.0983C22.4029 22.1082 22.678 22.0071 22.8868 21.8168C23.0717 21.5995 23.1582 21.3146 23.1253 21.0312C23.1301 20.7594 23.0323 20.4958 22.8516 20.2929C22.7507 20.1987 22.6306 20.1275 22.4995 20.0842C22.3685 20.0408 22.2296 20.0264 22.0925 20.0418ZM20.626 20.8979L19.6231 20.8622L19.6362 20.445L20.7738 20.485L20.7883 20.0862L19.1659 20.0292L19.0954 22.0838L20.7458 22.1413L20.7603 21.7419L19.5937 21.7014L19.6101 21.2407L20.6125 21.276L20.626 20.8979ZM18.5975 21.3499L18.1171 21.3161H18.1161C18.0975 21.4193 18.0448 21.5133 17.9664 21.5831C17.9238 21.6173 17.8747 21.6425 17.8221 21.6573C17.7695 21.6721 17.7145 21.6761 17.6603 21.669C17.5873 21.6676 17.5159 21.6478 17.4526 21.6115C17.3894 21.5753 17.3362 21.5236 17.2981 21.4614C17.2147 21.3116 17.1815 21.1389 17.2035 20.9689C17.2021 20.7805 17.2619 20.5968 17.3739 20.4454C17.4185 20.3927 17.4753 20.3517 17.5393 20.3259C17.6034 20.3 17.6727 20.2902 17.7414 20.2972C17.8467 20.2989 17.9481 20.3371 18.0282 20.4054C18.1014 20.48 18.1429 20.58 18.1441 20.6845L18.6173 20.7173C18.627 20.5097 18.5497 20.3069 18.4053 20.1572C18.2119 19.9944 17.9689 19.9022 17.7161 19.8959C17.4634 19.8896 17.216 19.9695 17.0147 20.1224C16.7974 20.3426 16.6772 20.6405 16.681 20.95C16.6413 21.2311 16.7127 21.5165 16.88 21.7458C17.0683 21.9515 17.3339 22.0679 17.6125 22.0664C17.8409 22.0935 18.0717 22.0404 18.2663 21.9167C18.4498 21.7815 18.5695 21.5763 18.5975 21.3499ZM14.8577 20.4701H14.8635L15.5096 21.8501L15.9987 21.9109L16.2498 19.8684L15.7694 19.8105L15.6134 21.0766L15.6052 21.0727L14.9582 19.711L14.4705 19.6507L14.2204 21.6912L14.7008 21.7497L14.8577 20.4701ZM13.1648 20.8129L12.6409 20.7299L13.0277 19.9988L13.1648 20.8129ZM13.3522 19.5043L12.8683 19.4276L11.7867 21.3378L12.2913 21.4179L12.4782 21.0582L13.215 21.1741L13.2855 21.5749L13.793 21.6555L13.3522 19.5043ZM10.6578 19.0427L10.7896 20.5565L11.4613 19.1997L11.9866 19.3011L10.9089 21.1852L10.4048 21.0872L10.1141 18.9365L10.6578 19.0427ZM8.1411 20.1852L8.4453 18.966L8.7722 19.0471C8.92285 19.0741 9.05323 19.1692 9.12517 19.3044C9.1865 19.4609 9.19181 19.6328 9.13966 19.7926C9.11219 19.9596 9.02311 20.1102 8.89002 20.2146C8.82242 20.2532 8.74746 20.2771 8.67002 20.2849C8.59257 20.2926 8.51437 20.284 8.44047 20.2595L8.1411 20.1852ZM8.92816 18.6748L8.07205 18.4609L7.5747 20.4561L8.3888 20.6589C8.65747 20.7467 8.94987 20.726 9.2034 20.6009C9.44097 20.4426 9.60224 20.1924 9.64908 19.9104C9.72833 19.6504 9.70678 19.3701 9.58872 19.1253C9.51791 19.0068 9.42214 18.9051 9.30808 18.8273C9.19401 18.7495 9.06437 18.6974 8.92816 18.6748ZM6.60848 19.4546L6.0981 19.3078L6.57082 18.6294L6.60848 19.4546ZM6.95373 18.1784L6.48246 18.0437L5.17631 19.8071L5.6669 19.9476L5.89626 19.613L6.61379 19.8187L6.63456 20.2257L7.12901 20.3672L6.95373 18.1784ZM33.0173 6.33567V12.9268L31.6672 6.33567H28.8202V15.1479H30.432V7.68575L31.9647 15.1479H34.6185V6.33518L33.0173 6.33567ZM28.0834 12.7901V8.69301C28.0834 7.73179 27.8849 7.07187 27.489 6.71327C27.1156 6.38492 26.4412 6.22074 25.4658 6.22074C24.4904 6.22074 23.8194 6.38492 23.4527 6.71327C23.0568 7.07155 22.8588 7.73147 22.8588 8.69301V12.7901C22.8588 13.751 23.0568 14.4109 23.4527 14.7699C23.8191 15.0982 24.4901 15.2624 25.4658 15.2624C26.4412 15.2617 27.1156 15.0976 27.489 14.7699C27.8849 14.4109 28.0831 13.751 28.0834 12.7901ZM25.4663 7.62829C25.8313 7.62829 26.014 7.83061 26.0143 8.23525V13.2479C26.0143 13.6519 25.8316 13.8539 25.4663 13.8539C25.1077 13.8539 24.9284 13.6519 24.9284 13.2479V8.23525C24.9284 7.83061 25.1077 7.62797 25.4663 7.62829ZM20.4397 15.1475H22.4542L21.0809 10.2271L22.4532 6.33567H20.4957L19.1948 10.341V6.33518H17.1364V15.1475H19.1948V10.6839L20.4397 15.1475ZM16.3778 6.33567H14.3193V13.0422C14.3193 13.5839 14.1363 13.8548 13.7703 13.8548C13.412 13.8548 13.2329 13.6145 13.2329 13.1339V6.33567H11.1865V12.6187C11.1865 13.5413 11.3905 14.2125 11.7983 14.6322C12.2058 15.0523 12.8709 15.2624 13.7935 15.2624C14.7464 15.2624 15.4209 15.0333 15.8172 14.5753C16.1906 14.1561 16.3773 13.4581 16.3773 12.4811L16.3778 6.33567ZM1.55579 19.7888V15.0857C14.053 20.0167 27.9567 20.0167 40.4539 15.0857V19.7883L40.436 19.795L39.8532 20.0268L39.2661 20.2504L38.676 20.4677L38.0826 20.6782L37.4857 20.882L36.8851 21.078L36.2824 21.2678L35.676 21.4498L35.0666 21.6251L34.4548 21.7931L33.8401 21.9534L33.2216 22.1065L32.6011 22.2523L31.9782 22.3909L31.3519 22.5213L30.7227 22.6449L30.0916 22.7608L29.4581 22.8689L28.8217 22.9694L28.1819 23.0621L27.5407 23.1471L26.897 23.2243L26.2504 23.2929L25.6015 23.3542L24.9515 23.4073L24.2977 23.4527L23.6425 23.4899L22.9858 23.5189L22.3262 23.5396L21.6652 23.5517L21.0022 23.5556L20.3387 23.5517L19.6772 23.5396L19.0176 23.5189L18.3609 23.4899L17.7062 23.4527L17.0533 23.4073L16.4029 23.3542L15.7544 23.2934L15.1079 23.2243L14.4642 23.1471L13.823 23.0626L13.1836 22.9694L12.5472 22.8689L11.9142 22.7613L11.2826 22.6454L10.6539 22.5223L10.0276 22.3919L9.40427 22.2528L8.78379 22.107L8.16572 21.9539L7.55055 21.7936L6.93925 21.6261L6.32987 21.4513L5.72388 21.2687L5.12271 21.0795L4.52396 20.8824L3.92665 20.6796L3.3337 20.4691L2.74315 20.2518L2.15696 20.0273L1.57366 19.7955L1.55579 19.7888ZM1.55579 14.5497C14.0435 19.5305 27.9662 19.5305 40.4539 14.5497L40.4534 6.78521L40.3496 6.72485L39.7943 6.41099L39.2332 6.1063L38.6678 5.81079L38.0961 5.52397L37.5195 5.24632L36.9372 4.97785L36.351 4.71952L35.759 4.46988L35.1627 4.23182L34.5615 4.00198L33.9555 3.78131L33.3452 3.57078L32.73 3.37039L32.1105 3.1787L31.4876 2.99762L30.8599 2.82765L30.2273 2.66734L29.5914 2.51766L28.9516 2.37859L28.3079 2.24967L27.6609 2.13136L27.01 2.02417L26.3562 1.9276L25.6976 1.84261L25.0365 1.76777L24.3721 1.70499L23.7043 1.65188L23.0336 1.6118L22.36 1.58283L21.683 1.56496L21.0041 1.55917L20.3242 1.56496L19.6473 1.58235L18.9742 1.6118L18.3025 1.65236L17.6352 1.70548L16.9703 1.76825L16.3087 1.84261L15.6516 1.9276L14.9973 2.02417L14.3464 2.13136L13.6989 2.24967L13.0557 2.37859L12.4154 2.51717L11.7795 2.66686L11.1474 2.82621L10.5202 2.99666L9.89631 3.17773L9.27776 3.36846L8.66211 3.56982L8.05128 3.78035L7.44577 4.00053L6.8446 4.23038L6.24827 4.47036L5.65627 4.71952L5.07056 4.97833L4.48871 5.24681L3.91217 5.52397L3.34046 5.81079L2.77502 6.1063L2.21442 6.41051L1.65912 6.72437L1.55579 6.78473V14.5497ZM41.368 6.26034C35.2137 2.57802 28.1749 0.636362 21.0032 0.642693C13.8324 0.636216 6.79449 2.57719 0.640761 6.25841V20.4025C7.09381 23.088 14.0143 24.4705 21.0039 24.4705C27.9934 24.4705 34.9139 23.088 41.367 20.4025L41.368 6.26034ZM10.9538 6.33567H8.9301L8.16379 9.88231L7.39748 6.33567H5.39698L7.13432 11.9089V15.1479H9.20436V11.9089L10.9538 6.33567Z" fill="#121212" fill-opacity="0.24" style="fill:#121212;fill:color(display-p3 0.0706 0.0706 0.0706);fill-opacity:0.24;"/>
</g>
<defs>
<clipPath id="clip0_2102_8249">
<rect width="42.0092" height="25.109" fill="white" style="fill:white;fill-opacity:1;"/>
</clipPath>
</defs>
</svg>
