<svg width="48" height="48" viewBox="0 0 48 48" fill="none" xmlns="http://www.w3.org/2000/svg">
<rect width="48" height="48" rx="24" fill="#0C8CE9" style="fill:#0C8CE9;fill:color(display-p3 0.0471 0.5490 0.9137);fill-opacity:1;"/>
<rect x="9.86596" y="15.6752" width="7.32786" height="13.5972" rx="3.66393" transform="rotate(-19.0388 9.86596 15.6752)" stroke="white" style="stroke:white;stroke-opacity:1;" stroke-width="1.98731" stroke-linecap="round" stroke-linejoin="round"/>
<path d="M31.2705 27.5242C31.988 26.7493 32.786 26.2833 33.8218 26.3525C35.9679 26.4961 37.293 28.8892 36.2294 30.7759C35.8557 31.4386 35.1394 32.1951 34.349 32.8886C33.5365 33.6014 32.56 34.3213 31.5867 34.9008C28.5759 36.6935 24.8036 37.5344 21.302 37.1957C19.5877 37.0298 18.4009 36.7642 17.6981 35.7213C16.6017 34.0943 17.2694 31.8403 19.1596 31.188C19.422 31.0974 19.6795 31.0401 20.0076 31.0379C20.2953 31.036 20.6163 31.0775 20.9972 31.1365C24.8837 31.7378 28.5631 30.4479 31.2705 27.5242Z" stroke="white" style="stroke:white;stroke-opacity:1;" stroke-width="1.98731" stroke-linecap="round" stroke-linejoin="round"/>
<path d="M24.9232 10.3554C26.8472 9.6915 28.9308 10.7369 29.5932 12.6561L31.654 18.6279C32.3164 20.5473 31.3208 22.6552 29.3968 23.3191C27.4728 23.9828 25.3891 22.9377 24.7268 21.0184L22.666 15.0466C22.0039 13.1274 22.9995 11.0195 24.9232 10.3554Z" stroke="white" style="stroke:white;stroke-opacity:1;" stroke-width="1.98731" stroke-linecap="round" stroke-linejoin="round"/>
</svg>
