<svg xmlns="http://www.w3.org/2000/svg" width="42.009" height="25.109" fill="none" preserveAspectRatio="none" viewBox="0 0 42.0092 25.109"><g clip-path="url(#clip0_296_783)" id="Tinyboom"><g id="1.4. White Logo Two Row"><path d="M26.593 9.33387C26.3493 8.83481 26.4553 8.1837 26.8958 7.73497C27.0805 7.54687 27.3 7.41864 27.5289 7.35143L27.894 0.195882L24.1914 0.326469L24.0659 5.87645L21.3516 0L17.4293 0.195882L17.1469 11.7692H20.677L21.0222 5.72954L23.1875 11.571C23.5483 11.4683 23.9636 11.3997 24.4098 11.3756C24.5454 10.9778 24.8057 10.5567 25.1728 10.1827C25.6193 9.72788 26.134 9.43406 26.593 9.33387Z" fill="#D1D5DB" style="fill:color(display-p3 0.8196 0.8353 0.8588);fill-opacity:1"></path><path d="M11.9303 3.68911L12.0087 0.228528L3.45811 0.244852L3.36397 4.09719L5.70166 3.9666L5.68597 11.7039L8.99639 11.5244L9.59258 3.78705L11.9303 3.68911Z" fill="#D1D5DB" style="fill:color(display-p3 0.8196 0.8353 0.8588);fill-opacity:1"></path><path d="M15.8134 11.5244L16.6763 0.408086L12.5029 0.636615V11.7039L15.8134 11.5244Z" fill="#D1D5DB" style="fill:color(display-p3 0.8196 0.8353 0.8588);fill-opacity:1"></path><path d="M34.3031 7.11704L38.6176 0.848821L34.8522 0.571321L32.8597 4.09719L32.2321 0.571321L28.2314 1.09367L30.4749 7.14968L30.3808 12.2263H34.0991L34.3031 7.11704Z" fill="#D1D5DB" style="fill:color(display-p3 0.8196 0.8353 0.8588);fill-opacity:1"></path><path d="M9.10621 21.8496C9.10621 22.3012 9.02515 22.6902 8.86303 23.0167C8.70614 23.3432 8.49433 23.6207 8.22761 23.8492C7.9609 24.0777 7.65235 24.2654 7.30195 24.4124C6.95679 24.5538 6.59594 24.6654 6.2194 24.747C5.84286 24.8286 5.4637 24.883 5.08193 24.9102C4.70539 24.9374 4.35238 24.951 4.02291 24.951C3.69867 24.951 3.36135 24.9374 3.01095 24.9102C2.66579 24.8885 2.32063 24.8476 1.97547 24.7878C1.6303 24.7279 1.29037 24.649 0.955671 24.5511C0.620968 24.4477 0.304567 24.3199 0.0064724 24.1675L-0.00921631 13.6552C0.283649 13.53 0.59482 13.4185 0.924293 13.3206C1.25377 13.2172 1.58847 13.1328 1.9284 13.0675C2.27356 12.9968 2.61611 12.9451 2.95605 12.9125C3.29598 12.8744 3.62545 12.8553 3.94446 12.8553C4.31577 12.8553 4.6897 12.8798 5.06624 12.9288C5.44801 12.9778 5.81409 13.0594 6.16449 13.1736C6.51488 13.2879 6.84174 13.4375 7.14506 13.6225C7.44839 13.8021 7.71249 14.0252 7.93737 14.2918C8.16748 14.5584 8.34529 14.8686 8.4708 15.2222C8.60154 15.5759 8.66691 15.984 8.66691 16.4465C8.66691 16.7512 8.62508 17.0369 8.5414 17.3035C8.45773 17.5701 8.33744 17.8095 8.18055 18.0217C8.02366 18.2339 7.83277 18.4162 7.60789 18.5686C7.38301 18.7155 7.12937 18.8243 6.84696 18.895C7.1869 18.9875 7.49545 19.1236 7.77263 19.3031C8.05503 19.4827 8.29299 19.7003 8.48649 19.956C8.68522 20.2118 8.83688 20.5002 8.94147 20.8212C9.0513 21.1422 9.10621 21.485 9.10621 21.8496ZM5.12115 17.1974C5.12115 17.0396 5.08977 16.9063 5.02702 16.7975C4.96426 16.6832 4.88582 16.5907 4.79168 16.52C4.70278 16.4492 4.60341 16.3975 4.49358 16.3649C4.38899 16.3322 4.29486 16.3159 4.21118 16.3159C4.10659 16.3159 4.0046 16.3322 3.90524 16.3649C3.80587 16.3975 3.70913 16.4356 3.61499 16.4791L3.56792 18.2911C3.68821 18.2911 3.83725 18.2802 4.01506 18.2584C4.19288 18.2366 4.36284 18.1904 4.52497 18.1197C4.69232 18.0435 4.83352 17.9347 4.94857 17.7932C5.06363 17.6463 5.12115 17.4477 5.12115 17.1974ZM4.00722 19.8581C3.85556 19.8581 3.70913 19.8744 3.56792 19.9071L3.53655 21.768C3.61499 21.7843 3.69082 21.8006 3.76404 21.8169C3.84248 21.8278 3.91831 21.8332 3.99153 21.8332C4.10135 21.8332 4.22164 21.8224 4.35238 21.8006C4.48312 21.7734 4.60602 21.7244 4.72108 21.6537C4.83613 21.5775 4.93027 21.4768 5.00348 21.3517C5.08193 21.2266 5.12115 21.0606 5.12115 20.8538C5.12115 20.6471 5.08193 20.4784 5.00348 20.3478C4.93027 20.2172 4.83875 20.1166 4.72893 20.0458C4.6191 19.9696 4.49881 19.9207 4.36807 19.8989C4.23733 19.8717 4.11705 19.8581 4.00722 19.8581Z" fill="#D1D5DB" style="fill:color(display-p3 0.8196 0.8353 0.8588);fill-opacity:1"></path><path d="M19.0689 18.993C19.0689 19.4881 19.0139 19.9669 18.9041 20.4294C18.7943 20.8865 18.6348 21.3163 18.4256 21.719C18.2216 22.1216 17.9706 22.4916 17.6725 22.829C17.3797 23.1609 17.0476 23.4466 16.6763 23.686C16.3102 23.9254 15.9101 24.1131 15.476 24.2491C15.042 24.3797 14.5817 24.445 14.0954 24.445C13.6247 24.445 13.1749 24.3824 12.7461 24.2573C12.3225 24.1321 11.925 23.958 11.5537 23.7349C11.1824 23.5064 10.8451 23.2343 10.5418 22.9188C10.2437 22.5977 9.98742 22.2441 9.773 21.8577C9.56381 21.466 9.39908 21.047 9.27879 20.6008C9.16374 20.1546 9.10621 19.6894 9.10621 19.2052C9.10621 18.7318 9.16112 18.2693 9.27094 17.8177C9.38077 17.3606 9.53766 16.9308 9.74162 16.5281C9.95081 16.1255 10.2018 15.7555 10.4947 15.4181C10.7876 15.0808 11.1144 14.7897 11.4753 14.5448C11.8414 14.3 12.2362 14.1095 12.6598 13.9735C13.0834 13.8375 13.5306 13.7695 14.0012 13.7695C14.7596 13.7695 15.4499 13.8919 16.0722 14.1367C16.6998 14.3816 17.2332 14.7325 17.6725 15.1896C18.117 15.6412 18.4596 16.1908 18.7002 16.8383C18.946 17.4803 19.0689 18.1986 19.0689 18.993ZM15.5858 19.2052C15.5858 18.9712 15.5519 18.7454 15.4839 18.5277C15.4211 18.3047 15.327 18.1088 15.2015 17.9401C15.076 17.766 14.9191 17.6272 14.7308 17.5238C14.5478 17.415 14.3359 17.3606 14.0954 17.3606C13.8496 17.3606 13.6299 17.4069 13.4364 17.4994C13.2429 17.5919 13.0756 17.7197 12.9344 17.883C12.7984 18.0408 12.6938 18.2285 12.6206 18.4461C12.5474 18.6583 12.5108 18.8841 12.5108 19.1235C12.5108 19.3521 12.5421 19.5806 12.6049 19.8091C12.6677 20.0377 12.7618 20.2444 12.8873 20.4294C13.0128 20.6144 13.1671 20.7641 13.3501 20.8783C13.5384 20.9926 13.7554 21.0497 14.0012 21.0497C14.247 21.0497 14.4667 21.0008 14.6602 20.9028C14.8589 20.7994 15.0263 20.6634 15.1622 20.4947C15.2982 20.3206 15.4028 20.122 15.476 19.8989C15.5492 19.6758 15.5858 19.4446 15.5858 19.2052Z" fill="#D1D5DB" style="fill:color(display-p3 0.8196 0.8353 0.8588);fill-opacity:1"></path><path d="M41.9908 12.8553L41.2691 24.8368L37.6919 25L37.7233 18.6828L36.1073 23.7757H34.7267L33.4872 19.2215L33.4715 24.5103L29.8473 24.6246L30.0042 13.345L34.0364 13.1818L35.6367 18.5849L37.7704 12.8553H41.9908Z" fill="#D1D5DB" style="fill:color(display-p3 0.8196 0.8353 0.8588);fill-opacity:1"></path><path d="M27.2821 15.0894L27.2808 15.0843C26.6261 14.5733 25.8397 14.2213 24.9694 14.09C24.0944 13.9595 23.2456 14.0683 22.4799 14.3729C20.849 15.0043 19.5992 16.483 19.3264 18.358C18.9253 21.1226 20.8061 23.6935 23.5236 24.0968C26.2428 24.5046 28.7654 22.5935 29.167 19.8287C29.4411 17.9584 28.6603 16.1726 27.2821 15.0894ZM24.2342 22.3789C24.2071 22.5683 24.0708 22.714 23.9003 22.7605C23.8421 22.7763 23.7792 22.7803 23.716 22.771C22.7507 22.627 21.8983 22.1087 21.316 21.3128C20.7334 20.5158 20.4907 19.5369 20.6329 18.5557C20.67 18.3012 20.9015 18.1262 21.1511 18.1635C21.4006 18.2009 21.5734 18.4367 21.5367 18.6905C21.4302 19.4265 21.6122 20.1605 22.0489 20.7579C22.4855 21.3548 23.1248 21.7436 23.8491 21.8518C24.0981 21.8893 24.2709 22.1251 24.2342 22.3789Z" fill="#D1D5DB" style="fill:color(display-p3 0.8196 0.8353 0.8588);fill-opacity:1"></path><path d="M29.149 9.06597L28.8132 9.23246C28.5862 9.34449 28.492 9.62276 28.6026 9.85345C28.6997 10.057 28.924 10.1552 29.131 10.0988C29.1588 10.0912 29.1863 10.0804 29.2132 10.0671L29.5489 9.90058C29.7759 9.78854 29.8702 9.51028 29.7595 9.27959C29.6495 9.04927 29.3753 8.95356 29.149 9.06597Z" fill="#D1D5DB" style="fill:color(display-p3 0.8196 0.8353 0.8588);fill-opacity:1"></path><path d="M27.591 9.26603C27.7332 9.22729 27.8535 9.12005 27.9051 8.96812L28.0264 8.60915C28.1084 8.36676 27.9818 8.10236 27.7429 8.0191C27.5033 7.93494 27.2441 8.06459 27.1627 8.30735L27.0414 8.66632C26.9594 8.9087 27.086 9.17311 27.3249 9.25637C27.414 9.28779 27.5065 9.28906 27.591 9.26603Z" fill="#D1D5DB" style="fill:color(display-p3 0.8196 0.8353 0.8588);fill-opacity:1"></path><path d="M28.8615 10.9553C28.6224 10.8711 28.3628 11.0014 28.2808 11.2437C28.1989 11.4866 28.3259 11.7504 28.5644 11.8343L28.9174 11.9576C29.0065 11.989 29.099 11.9903 29.1835 11.9673C29.3257 11.9285 29.4465 11.8212 29.4976 11.6694C29.5795 11.4265 29.4525 11.1627 29.214 11.0788L28.8615 10.9553Z" fill="#D1D5DB" style="fill:color(display-p3 0.8196 0.8353 0.8588);fill-opacity:1"></path><path d="M27.4638 9.85549C25.7613 9.78499 25.0444 11.0568 24.8427 11.9605C24.2836 11.9342 23.7405 12.0132 23.2377 12.1839C22.9476 12.2789 22.7413 12.5331 22.6994 12.8329L22.5997 13.5186C22.6648 13.4981 22.7263 13.4725 22.7916 13.4547C23.5344 13.2523 24.3043 13.2085 25.0798 13.3237C25.9141 13.4499 26.7052 13.7703 27.4038 14.2379L27.5029 13.5541C27.5434 13.2491 27.4167 12.9472 27.1709 12.7738C26.7505 12.4686 26.2707 12.2387 25.7507 12.0991C25.8726 11.617 26.2549 10.7341 27.4263 10.7834C27.6777 10.7948 27.8913 10.5949 27.9013 10.3385C27.9118 10.082 27.7159 9.86564 27.4638 9.85549Z" fill="#D1D5DB" style="fill:color(display-p3 0.8196 0.8353 0.8588);fill-opacity:1"></path></g></g><defs><clipPath id="clip0_296_783"><rect fill="white" height="25.109" style="fill:white;fill-opacity:1" width="42.0092"></rect></clipPath></defs></svg>